<?xml version="1.0" encoding="utf-8"?>
<svg version="1.1" xmlns:xlink="http://www.w3.org/1999/xlink" width="276px" height="119px" xmlns="http://www.w3.org/2000/svg">
  <defs>
    <filter x="-12px" y="-12px" width="276px" height="119px" filterUnits="userSpaceOnUse" id="filter22588">
      <feOffset dx="0" dy="0" in="SourceAlpha" result="shadowOffsetInner" />
      <feGaussianBlur stdDeviation="6" in="shadowOffsetInner" result="shadowGaussian" />
      <feComposite in2="shadowGaussian" operator="atop" in="SourceAlpha" result="shadowComposite" />
      <feColorMatrix type="matrix" values="0 0 0 0 0  0 0 0 0 0  0 0 0 0 0  0 0 0 1 0  " in="shadowComposite" />
    </filter>
    <g id="widget22589">
      <path d="M 0.5 8.000000000000002  A 7.5 7.5 0 0 1 7.999999999999998 0.5 L 244 0.5  A 7.5 7.5 0 0 1 251.5 8 L 251.5 87  A 7.5 7.5 0 0 1 244 94.5 L 8 94.5  A 7.5 7.5 0 0 1 0.5 87 L 0.5 8  Z " fill-rule="nonzero" fill="#cfad00" stroke="none" fill-opacity="0.2" />
      <path d="M 0.5 8.000000000000002  A 7.5 7.5 0 0 1 7.999999999999998 0.5 L 244 0.5  A 7.5 7.5 0 0 1 251.5 8 L 251.5 87  A 7.5 7.5 0 0 1 244 94.5 L 8 94.5  A 7.5 7.5 0 0 1 0.5 87 L 0.5 8  Z " stroke-width="1" stroke="#cfad00" fill="none" />
    </g>
  </defs>
  <g transform="matrix(1 0 0 1 12 12 )">
    <use xlink:href="#widget22589" filter="url(#filter22588)" />
    <use xlink:href="#widget22589" />
  </g>
</svg>