<?xml version="1.0" encoding="utf-8"?>
<svg version="1.1" xmlns:xlink="http://www.w3.org/1999/xlink" width="16px" height="14px" xmlns="http://www.w3.org/2000/svg">
  <g transform="matrix(1 0 0 1 -28 -71 )">
    <path d="M 15.461538461538462 5.019533711405167  C 15.820512820512821 5.072463768115943  16 5.207729468599034  16 5.425330812854443  C 16 5.554715395925225  15.916666666666668 5.695862213820624  15.75 5.848771266540643  L 12.259615384615385 8.971644612476371  L 13.086538461538462 13.382482671707624  C 13.092948717948719 13.423650493593783  13.096153846153847 13.482461667716866  13.096153846153847 13.558916194076875  C 13.096153846153847 13.68241965973535  13.0625 13.786809493803823  12.995192307692308 13.872085696282292  C 12.927884615384615 13.957361898760764  12.830128205128206 14  12.701923076923077 14  C 12.580128205128206 14  12.451923076923077 13.96471329552615  12.317307692307692 13.89413988657845  L 8 11.812224322621299  L 3.6826923076923075 13.89413988657845  C 3.541666666666667 13.96471329552615  3.4134615384615383 14  3.298076923076923 14  C 3.1634615384615383 14  3.0625 13.957361898760764  2.9951923076923075 13.872085696282292  C 2.9278846153846154 13.786809493803823  2.894230769230769 13.68241965973535  2.894230769230769 13.558916194076875  C 2.894230769230769 13.523629489603024  2.900641025641026 13.46481831547994  2.9134615384615383 13.382482671707624  L 3.7403846153846154 8.971644612476371  L 0.2403846153846154 5.848771266540643  C 0.08012820512820512 5.689981096408317  0 5.548834278512918  0 5.425330812854443  C 0 5.207729468599034  0.17948717948717946 5.072463768115943  0.5384615384615384 5.019533711405167  L 5.365384615384615 4.375551354757404  L 7.528846153846154 0.36168872085696213  C 7.650641025641026 0.12056290695232019  7.8076923076923075 0  8 0  C 8.192307692307692 0  8.349358974358974 0.12056290695232019  8.471153846153847 0.36168872085696213  L 10.634615384615385 4.375551354757404  L 15.461538461538462 5.019533711405167  Z " fill-rule="nonzero" fill="#000000" stroke="none" transform="matrix(1 0 0 1 28 71 )" />
  </g>
</svg>