<?xml version="1.0" encoding="utf-8"?>
<svg version="1.1" xmlns:xlink="http://www.w3.org/1999/xlink" width="31px" height="24px" xmlns="http://www.w3.org/2000/svg">
  <g transform="matrix(1 0 0 1 -484 -358 )">
    <path d="M 30.44 3.313131313131314  C 30.81333333333334 3.6902356902356894  31.000000000000007 4.148148148148148  31 4.686868686868687  C 31.000000000000007 5.225589225589223  30.81333333333334 5.683501683501682  30.44 6.06060606060606  L 15.96 20.686868686868685  L 13.24 23.434343434343432  C 12.866666666666667 23.811447811447813  12.413333333333336 24  11.88 24  C 11.346666666666668 24  10.893333333333334 23.811447811447813  10.52 23.434343434343432  L 7.799999999999999 20.686868686868685  L 0.56 13.373737373737375  C 0.18666666666666684 12.996632996632995  0 12.538720538720536  0 12  C 0 11.46127946127946  0.18666666666666684 11.003367003367003  0.56 10.626262626262626  L 3.28 7.878787878787879  C 3.6533333333333338 7.501683501683501  4.106666666666667 7.3131313131313105  4.640000000000001 7.313131313131313  C 5.173333333333335 7.3131313131313105  5.626666666666667 7.501683501683501  6 7.878787878787879  L 11.88 13.838383838383837  L 25 0.5656565656565657  C 25.373333333333335 0.1885521885521877  25.82666666666667 0  26.36 0  C 26.893333333333334 0  27.346666666666668 0.1885521885521877  27.72 0.5656565656565657  L 30.44 3.313131313131314  Z " fill-rule="nonzero" fill="#cfad00" stroke="none" transform="matrix(1 0 0 1 484 358 )" />
  </g>
</svg>