<?xml version="1.0" encoding="utf-8"?>
<svg version="1.1" xmlns:xlink="http://www.w3.org/1999/xlink" width="41px" height="35px" xmlns="http://www.w3.org/2000/svg">
  <g transform="matrix(1 0 0 1 -32 -16 )">
    <path d="M 13.876923076923077 30.287709497206706  C 16.097756410256412 32.22998137802607  18.666826923076925 33.42923649906891  21.584134615384617 33.885474860335194  C 21.505288461538463 33.87243947858473  21.433012820512822 33.8463687150838  21.367307692307694 33.8072625698324  C 21.19647435897436 33.70297951582868  20.9599358974359 33.55307262569832  20.657692307692308 33.357541899441344  C 20.35544871794872 33.16201117318436  19.790384615384614 32.73836126629423  18.962500000000002 32.08659217877095  C 18.134615384615383 31.434823091247676  17.369150641025644 30.75372439478585  16.666105769230768 30.04329608938547  C 15.9630608974359 29.332867783985105  15.227163461538463 28.420391061452513  14.458413461538463 27.30586592178771  C 13.68966346153846 26.191340782122907  13.101602564102565 25.067039106145252  12.694230769230769 23.932960893854748  C 12.470833333333335 23.893854748603353  11.32099358974359 23.652700186219736  9.244711538461539 23.209497206703908  C 10.112019230769231 25.986033519553075  11.656089743589746 28.345437616387336  13.876923076923077 30.287709497206706  Z M 8.613942307692307 19.807262569832403  C 8.679647435897436 20.654562383612664  8.791346153846153 21.397579143389198  8.949038461538462 22.03631284916201  L 12.260576923076922 22.583798882681563  C 11.932051282051283 21.59310986964618  11.662660256410259 20.501396648044693  11.452403846153846 19.308659217877096  C 11.242147435897436 18.1159217877095  11.117307692307692 17.167597765363126  11.077884615384615 16.463687150837988  L 10.999038461538461 15.427374301675979  C 9.895192307692307 16.49627560521415  9.100160256410259 17.95623836126629  8.613942307692307 19.807262569832403  Z M 11.058173076923076 11.692737430167599  L 11.117307692307692 10.128491620111731  C 10.552243589743592 10.962756052141525  10.046314102564104 11.927374301675979  9.59951923076923 13.022346368715084  C 10.17772435897436 12.422718808193665  10.663942307692308 11.979515828677837  11.058173076923076 11.692737430167599  Z M 37.097115384615385 26.787709497206706  C 38.66089743589744 24.310986964618245  39.44278846153846 21.58659217877095  39.44278846153846 18.614525139664803  C 39.44278846153846 16.515828677839853  39.03541666666667 14.514897579143387  38.22067307692308 12.611731843575418  C 37.40592948717949 10.708566108007446  36.305368589743594 9.066108007448785  34.918990384615384 7.684357541899442  C 33.53261217948718 6.302607076350092  31.88669871794872 5.204376163873366  29.98125 4.389664804469275  C 28.075801282051287 3.5749534450651765  26.078365384615385 3.1675977653631273  23.98894230769231 3.1675977653631273  C 22.057211538461537 3.1675977653631273  20.21089743589744 3.5097765363128506  18.45 4.19413407821229  C 16.689102564102566 4.87849162011173  15.112179487179489 5.846368715083799  13.719230769230768 7.097765363128491  C 13.325000000000001 7.853817504655492  13.029326923076923 8.89664804469274  12.832211538461538 10.226256983240223  C 13.620673076923076 9.56145251396648  14.560256410256411 9.017225325884542  15.650961538461537 8.593575418994414  C 16.741666666666667 8.16992551210428  17.78309294871795 7.889664804469275  18.775240384615383 7.752793296089384  C 19.767387820512823 7.615921787709496  20.706971153846155 7.527932960893856  21.593990384615385 7.488826815642457  C 22.481009615384615 7.449720670391063  23.193910256410255 7.456238361266294  23.73269230769231 7.5083798882681565  L 24.521153846153844 7.56703910614525  C 24.95480769230769 7.580074487895714  25.303044871794874 7.681098696461822  25.565865384615385 7.870111731843576  C 25.8286858974359 8.059124767225324  25.989663461538463 8.274208566108005  26.048798076923077 8.51536312849162  C 26.107932692307692 8.756517690875231  26.15064102564103 8.997672253258843  26.176923076923075 9.238826815642458  C 26.20320512820513 9.47998137802607  26.196634615384614 9.665735567970204  26.157211538461535 9.79608938547486  C 24.501442307692308 9.652700186219736  23.006650641025644 9.649441340782124  21.672836538461535 9.78631284916201  C 20.339022435897437 9.923184357541897  19.13661858974359 10.206703910614523  18.065625 10.636871508379889  C 16.99463141025641 11.067039106145254  16.058333333333337 11.533054003724393  15.256730769230769 12.03491620111732  C 14.455128205128206 12.536778398510242  13.594391025641027 13.17877094972067  12.674519230769231 13.960893854748603  C 12.727083333333336 14.430167597765362  12.80264423076923 15.033054003724391  12.901201923076922 15.769553072625698  C 12.999759615384615 16.506052141527  13.23301282051282 17.666201117318433  13.600961538461538 19.25  C 13.968910256410258 20.833798882681567  14.376282051282052 22.00372439478585  14.823076923076922 22.75977653631285  C 16.439423076923077 22.837988826815643  18.065625 22.743482309124765  19.701682692307692 22.476256983240223  C 21.337740384615383 22.20903165735568  22.747115384615384 21.860335195530723  23.929807692307694 21.430167597765365  C 25.1125 21  26.180208333333333 20.563314711359403  27.132932692307694 20.120111731843576  C 28.085657051282055 19.676908752327748  28.805128205128206 19.292364990689013  29.291346153846156 18.96648044692737  L 30.020673076923075 18.497206703910614  C 30.30977564102565 18.288640595903164  30.5693108974359 18.1550279329609  30.799278846153847 18.0963687150838  C 31.029246794871796 18.037709497206706  31.229647435897437 18.070297951582866  31.40048076923077 18.19413407821229  C 31.571314102564106 18.31797020484171  31.683012820512822 18.542830540037244  31.735576923076923 18.868715083798882  C 31.919551282051287 20.133147113594042  31.663301282051282 20.921787709497206  30.966826923076923 21.23463687150838  C 28.233493589743595 22.499068901303534  25.165064102564106 23.372439478584727  21.76153846153846 23.854748603351958  C 19.9875 24.115456238361265  17.904647435897438 24.219739292364988  15.512980769230769 24.16759776536313  C 16.051762820512824 25.418994413407823  16.774519230769233 26.569366852886404  17.681250000000002 27.618715083798882  C 18.58798076923077 28.66806331471136  19.488141025641028 29.495810055865924  20.38173076923077 30.10195530726257  C 21.275320512820514 30.70810055865922  22.132772435897436 31.222998137802605  22.954086538461535 31.646648044692736  C 23.77540064102564 32.070297951582866  24.442307692307693 32.353817504655495  24.95480769230769 32.497206703910614  L 25.723557692307693 32.73184357541899  C 27.60272435897436 33.031657355679705  29.33076923076923 32.93389199255121  30.907692307692308 32.43854748603352  C 33.47019230769231 31.14804469273743  35.53333333333333 29.26443202979516  37.097115384615385 26.787709497206706  Z M 39.18653846153846 8.62290502793296  C 40.67147435897436 11.503724394785845  41.243108974358975 14.59310986964618  40.90144230769231 17.891061452513966  C 40.71746794871795 19.650837988826815  40.454647435897435 21.03258845437616  40.11298076923077 22.03631284916201  C 39.19310897435898 24.74767225325884  38.0005608974359 27.006052141526997  36.535336538461536 28.81145251396648  C 35.07011217948718 30.616852886405958  32.97740384615385 32.26908752327746  30.25721153846154 33.768156424581  C 29.626442307692308 34.19832402234637  29.087660256410256 34.48510242085661  28.640865384615385 34.62849162011173  C 27.69471153846154 34.96741154562384  26.62371794871795 35.07169459962756  25.427884615384617 34.94134078212291  C 24.95480769230769 34.9804469273743  24.475160256410255 35  23.98894230769231 35  C 20.270032051282055 35  16.955208333333335 33.87243947858473  14.044471153846153 31.61731843575419  C 11.133733974358975 29.362197392923647  9.192147435897436 26.48137802607076  8.219711538461539 22.974860335195533  C 8.206570512820512 22.974860335195533  8.180288461538462 22.971601489757912  8.140865384615385 22.96508379888268  C 8.101442307692308 22.958566108007446  8.068589743589744 22.95530726256983  8.042307692307693 22.95530726256983  C 7.96346153846154 23.60707635009311  7.979887820512822 24.340316573556795  8.091586538461538 25.155027932960895  C 8.203285256410258 25.969739292364995  8.37411858974359 26.71927374301676  8.604086538461539 27.403631284916198  C 8.834054487179488 28.087988826815643  9.07059294871795 28.726722532588454  9.313701923076923 29.319832402234635  C 9.556810897435899 29.912942271880816  9.763782051282051 30.378957169459966  9.934615384615384 30.717877094972067  L 10.210576923076923 31.226256983240223  C 10.315705128205128 31.382681564245807  10.67051282051282 31.917132216014895  11.275 32.82960893854749  C 10.341987179487182 32.3342644320298  9.523958333333335 31.640130353817508  8.820913461538462 30.747206703910617  C 8.11786858974359 29.854283054003723  7.602083333333334 28.941806331471135  7.273557692307692 28.00977653631285  C 6.945032051282052 27.077746741154563  6.685496794871795 26.184823091247676  6.494951923076923 25.331005586592177  C 6.304407051282052 24.477188081936685  6.1894230769230765 23.77653631284916  6.1499999999999995 23.229050279329613  L 6.110576923076923 22.40782122905028  C 6.044871794871795 22.381750465549345  5.8247596153846155 22.30027932960894  5.450240384615385 22.16340782122905  C 5.075721153846154 22.026536312849164  4.7570512820512825 21.90921787709497  4.494230769230769 21.81145251396648  C 4.231410256410257 21.71368715083799  3.883173076923077 21.580074487895715  3.449519230769231 21.410614525139664  C 3.0158653846153847 21.24115456238361  2.638060897435898 21.078212290502794  2.316105769230769 20.921787709497206  C 1.9941506410256413 20.765363128491618  1.6656250000000001 20.599162011173185  1.3305288461538463 20.4231843575419  C 0.9954326923076924 20.247206703910614  0.7161858974358976 20.07122905027933  0.49278846153846156 19.895251396648042  C 0.26939102564102574 19.71927374301676  0.10512820512820518 19.553072625698327  0 19.39664804469274  C 0.2496794871794873 19.52700186219739  0.5814903846153846 19.693202979515824  0.9954326923076924 19.895251396648042  C 1.409375 20.09729981378026  2.151842948717949 20.393854748603353  3.2228365384615385 20.78491620111732  C 4.293830128205129 21.175977653631286  5.249839743589744 21.423649906890127  6.090865384615385 21.527932960893857  L 6.130288461538461 20.902234636871512  C 6.2748397435897445 18.95996275605214  6.892467948717949 17.069832402234635  7.983173076923077 15.231843575418992  C 8.521955128205128 12.59869646182495  9.678365384615384 10.219739292364988  11.452403846153846 8.094972067039107  C 11.820352564102565 6.595903165735565  12.352564102564104 5.201117318435754  13.04903846153846 3.9106145251396645  C 13.246153846153847 3.5456238361266297  13.456410256410258 3.252327746741152  13.679807692307692 3.03072625698324  C 13.903205128205128 2.809124767225324  14.225160256410259 2.6005586592178753  14.645673076923078 2.4050279329608943  C 16.721955128205128 1.4404096834264406  18.71610576923077 0.7625698324022329  20.628125 0.3715083798882668  C 22.54014423076923 -0.01955307262569539  24.524439102564106 -0.09124767225326069  26.581009615384616 0.15642458100558643  C 28.637580128205133 0.40409683426442966  30.651442307692307 1.036312849162011  32.62259615384615 2.0530726256983227  C 35.5136217948718 3.5521415270018575  37.70160256410257 5.742085661080071  39.18653846153846 8.62290502793296  Z " fill-rule="nonzero" fill="#cfad00" stroke="none" transform="matrix(1 0 0 1 32 16 )" />
  </g>
</svg>