<?xml version="1.0" encoding="utf-8"?>
<svg version="1.1" xmlns:xlink="http://www.w3.org/1999/xlink" width="16px" height="16px" xmlns="http://www.w3.org/2000/svg">
  <g transform="matrix(1 0 0 1 -477 -31 )">
    <path d="M 15.982966643009226 0.607954545454545  C 16.009462976105986 0.7632575757575744  15.984859238230424 0.9128787878787872  15.90915542938254 1.0568181818181817  L 8.641589779985805 15.602272727272727  C 8.512893304944406 15.867424242424242  8.29713744972794 16  7.9943222143364085 16  C 7.9564703099124685 16  7.899692453276557 15.992424242424242  7.823988644428673 15.977272727272727  C 7.6574402649633315 15.93939393939394  7.5230660042583395 15.854166666666668  7.420865862313698 15.721590909090908  C 7.318665720369056 15.58901515151515  7.267565649396735 15.43939393939394  7.267565649396735 15.272727272727273  L 7.267565649396735 8.727272727272727  L 0.7267565649396736 8.727272727272727  C 0.5602081854743317 8.727272727272727  0.4106931629997635 8.676136363636363  0.2782114975159688 8.573863636363637  C 0.1457298320321741 8.47159090909091  0.060563047078306134 8.337121212121211  0.0227111426543648 8.170454545454547  C -0.015140761769576534 8.003787878787879  0 7.844696969696969  0.06813342796309439 7.693181818181818  C 0.1362668559261888 7.541666666666666  0.24603737875561865 7.428030303030303  0.397444996451384 7.352272727272727  L 14.932576295244855 0.07954545454545503  C 15.030991246747103 0.026515151515150492  15.140761769576534 0  15.261887863733143 0  C 15.466288147622427 0  15.636621717530163 0.07196969696969546  15.772888573456353 0.21590909090909172  C 15.886444286728176 0.32196969696969546  15.956470309912469 0.4526515151515138  15.982966643009226 0.607954545454545  Z " fill-rule="nonzero" fill="#cfad00" stroke="none" transform="matrix(1 0 0 1 477 31 )" />
  </g>
</svg>